P2 100 100 255
0 
0 
0 
0 
0 
0 
0 
0 
0 
0 
0 
0 
0 
0 
0 
0 
0 
0 
0 
0 
0 
0 
9 
21 
29 
34 
39 
43 
46 
49 
52 
55 
57 
59 
61 
63 
64 
66 
67 
68 
69 
70 
71 
72 
72 
73 
73 
74 
74 
74 
74 
74 
74 
74 
73 
73 
72 
72 
71 
70 
69 
68 
67 
66 
64 
63 
61 
59 
57 
55 
52 
49 
46 
43 
39 
34 
29 
21 
9 
0 
0 
0 
0 
0 
0 
0 
0 
0 
0 
0 
0 
0 
0 
0 
0 
0 
0 
0 
0 
0 
0 
0 
0 
0 
0 
0 
0 
0 
0 
0 
0 
0 
0 
0 
0 
0 
0 
0 
0 
0 
0 
0 
13 
23 
30 
35 
40 
44 
47 
50 
53 
55 
58 
60 
62 
63 
65 
66 
68 
69 
70 
71 
72 
72 
73 
74 
74 
74 
75 
75 
75 
75 
75 
74 
74 
74 
73 
72 
72 
71 
70 
69 
68 
66 
65 
63 
62 
60 
58 
55 
53 
50 
47 
44 
40 
35 
30 
23 
13 
0 
0 
0 
0 
0 
0 
0 
0 
0 
0 
0 
0 
0 
0 
0 
0 
0 
0 
0 
0 
0 
0 
0 
0 
0 
0 
0 
0 
0 
0 
0 
0 
0 
0 
0 
0 
0 
0 
0 
0 
0 
0 
0 
15 
24 
31 
36 
41 
44 
48 
51 
54 
56 
58 
60 
62 
64 
66 
67 
68 
69 
70 
71 
72 
73 
74 
74 
75 
75 
75 
75 
75 
75 
75 
75 
75 
74 
74 
73 
72 
71 
70 
69 
68 
67 
66 
64 
62 
60 
58 
56 
54 
51 
48 
44 
41 
36 
31 
24 
15 
0 
0 
0 
0 
0 
0 
0 
0 
0 
0 
0 
0 
0 
0 
0 
0 
0 
0 
0 
0 
0 
0 
0 
0 
0 
0 
0 
0 
0 
0 
0 
0 
0 
0 
0 
0 
0 
0 
0 
0 
0 
0 
0 
16 
25 
32 
37 
41 
45 
48 
51 
54 
57 
59 
61 
63 
64 
66 
67 
69 
70 
71 
72 
73 
73 
74 
75 
75 
75 
76 
76 
76 
76 
76 
75 
75 
75 
74 
73 
73 
72 
71 
70 
69 
67 
66 
64 
63 
61 
59 
57 
54 
51 
48 
45 
41 
37 
32 
25 
16 
0 
0 
0 
0 
0 
0 
0 
0 
0 
0 
0 
0 
0 
0 
0 
0 
0 
0 
0 
0 
0 
0 
0 
0 
0 
0 
0 
0 
0 
0 
0 
0 
0 
0 
0 
0 
0 
0 
0 
0 
0 
0 
0 
17 
26 
32 
37 
42 
45 
49 
52 
54 
57 
59 
61 
63 
65 
66 
68 
69 
70 
71 
72 
73 
74 
74 
75 
75 
76 
76 
76 
76 
76 
76 
76 
75 
75 
74 
74 
73 
72 
71 
70 
69 
68 
66 
65 
63 
61 
59 
57 
54 
52 
49 
45 
42 
37 
32 
26 
17 
0 
0 
0 
0 
0 
0 
0 
0 
0 
0 
0 
0 
0 
0 
0 
0 
0 
0 
0 
0 
0 
0 
0 
0 
0 
0 
0 
0 
0 
0 
0 
0 
0 
0 
0 
0 
0 
0 
0 
0 
0 
0 
0 
18 
27 
33 
38 
42 
46 
49 
52 
55 
57 
59 
61 
63 
65 
67 
68 
69 
70 
71 
72 
73 
74 
75 
75 
76 
76 
76 
76 
76 
76 
76 
76 
76 
75 
75 
74 
73 
72 
71 
70 
69 
68 
67 
65 
63 
61 
59 
57 
55 
52 
49 
46 
42 
38 
33 
27 
18 
0 
0 
0 
0 
0 
0 
0 
0 
0 
0 
0 
0 
0 
0 
0 
0 
0 
0 
0 
0 
0 
0 
0 
0 
0 
0 
0 
0 
0 
0 
0 
0 
0 
0 
0 
0 
0 
0 
0 
0 
0 
0 
0 
18 
27 
33 
38 
42 
46 
49 
52 
55 
57 
60 
62 
63 
65 
67 
68 
69 
71 
72 
73 
73 
74 
75 
75 
76 
76 
76 
76 
76 
76 
76 
76 
76 
75 
75 
74 
73 
73 
72 
71 
69 
68 
67 
65 
63 
62 
60 
57 
55 
52 
49 
46 
42 
38 
33 
27 
18 
0 
0 
0 
0 
0 
0 
0 
0 
0 
0 
0 
0 
0 
0 
0 
0 
0 
0 
0 
0 
0 
0 
0 
0 
0 
0 
0 
0 
0 
0 
0 
0 
0 
0 
0 
0 
0 
0 
0 
0 
0 
0 
0 
18 
27 
33 
38 
42 
46 
49 
52 
55 
57 
60 
62 
63 
65 
67 
68 
69 
71 
72 
73 
73 
74 
75 
75 
76 
76 
76 
76 
76 
76 
76 
76 
76 
75 
75 
74 
73 
73 
72 
71 
69 
68 
67 
65 
63 
62 
60 
57 
55 
52 
49 
46 
42 
38 
33 
27 
18 
0 
0 
0 
0 
0 
0 
0 
0 
0 
0 
0 
0 
0 
0 
0 
0 
0 
0 
0 
0 
0 
0 
0 
0 
0 
0 
0 
0 
0 
0 
0 
0 
0 
0 
0 
0 
0 
0 
0 
0 
0 
0 
0 
18 
26 
33 
38 
42 
46 
49 
52 
55 
57 
59 
62 
63 
65 
67 
68 
69 
71 
72 
73 
73 
74 
75 
75 
76 
76 
76 
76 
76 
76 
76 
76 
76 
75 
75 
74 
73 
73 
72 
71 
69 
68 
67 
65 
63 
62 
59 
57 
55 
52 
49 
46 
42 
38 
33 
26 
18 
0 
0 
0 
0 
0 
0 
0 
0 
0 
0 
0 
0 
0 
0 
0 
0 
0 
0 
0 
0 
0 
0 
0 
0 
0 
0 
0 
0 
0 
0 
0 
0 
0 
0 
0 
0 
0 
0 
0 
0 
0 
0 
0 
17 
26 
32 
37 
42 
45 
49 
52 
55 
57 
59 
61 
63 
65 
67 
68 
69 
70 
71 
72 
73 
74 
75 
75 
76 
76 
76 
76 
76 
76 
76 
76 
76 
75 
75 
74 
73 
72 
71 
70 
69 
68 
67 
65 
63 
61 
59 
57 
55 
52 
49 
45 
42 
37 
32 
26 
17 
0 
0 
0 
0 
0 
0 
0 
0 
0 
0 
0 
0 
0 
0 
0 
0 
0 
0 
0 
0 
0 
0 
0 
0 
0 
0 
0 
0 
0 
0 
0 
0 
0 
0 
0 
0 
0 
0 
0 
0 
0 
0 
0 
16 
25 
32 
37 
41 
45 
48 
51 
54 
57 
59 
61 
63 
65 
66 
68 
69 
70 
71 
72 
73 
74 
74 
75 
75 
76 
76 
76 
76 
76 
76 
76 
75 
75 
74 
74 
73 
72 
71 
70 
69 
68 
66 
65 
63 
61 
59 
57 
54 
51 
48 
45 
41 
37 
32 
25 
16 
0 
0 
0 
0 
0 
0 
0 
0 
0 
0 
0 
0 
0 
0 
0 
0 
0 
0 
0 
0 
0 
0 
0 
0 
0 
0 
0 
0 
0 
0 
0 
0 
0 
0 
0 
0 
0 
0 
0 
0 
0 
0 
0 
14 
24 
31 
36 
41 
44 
48 
51 
54 
56 
59 
61 
63 
64 
66 
67 
69 
70 
71 
72 
73 
73 
74 
75 
75 
75 
76 
76 
76 
76 
76 
75 
75 
75 
74 
73 
73 
72 
71 
70 
69 
67 
66 
64 
63 
61 
59 
56 
54 
51 
48 
44 
41 
36 
31 
24 
14 
0 
0 
0 
0 
0 
0 
0 
0 
0 
0 
0 
0 
0 
0 
0 
0 
0 
0 
0 
0 
0 
0 
0 
0 
0 
0 
0 
0 
0 
0 
0 
0 
0 
0 
0 
0 
0 
0 
0 
0 
0 
0 
0 
11 
23 
30 
35 
40 
44 
47 
50 
53 
56 
58 
60 
62 
64 
65 
67 
68 
69 
70 
71 
72 
73 
74 
74 
75 
75 
75 
75 
75 
75 
75 
75 
75 
74 
74 
73 
72 
71 
70 
69 
68 
67 
65 
64 
62 
60 
58 
56 
53 
50 
47 
44 
40 
35 
30 
23 
11 
0 
0 
0 
0 
0 
0 
0 
0 
0 
0 
0 
0 
0 
0 
0 
0 
0 
0 
0 
0 
0 
0 
0 
0 
0 
0 
0 
0 
0 
0 
0 
0 
0 
0 
0 
0 
0 
0 
0 
0 
0 
0 
0 
6 
21 
28 
34 
39 
43 
46 
50 
52 
55 
57 
59 
61 
63 
65 
66 
68 
69 
70 
71 
72 
73 
73 
74 
74 
74 
75 
75 
75 
75 
75 
74 
74 
74 
73 
73 
72 
71 
70 
69 
68 
66 
65 
63 
61 
59 
57 
55 
52 
128 
122 
114 
105 
94 
81 
64 
39 
0 
0 
0 
0 
0 
0 
0 
0 
0 
0 
0 
0 
0 
0 
0 
0 
0 
0 
0 
0 
0 
0 
0 
0 
0 
0 
0 
0 
0 
0 
0 
0 
0 
0 
0 
0 
0 
0 
0 
0 
0 
0 
0 
0 
18 
26 
33 
37 
42 
45 
49 
51 
54 
57 
59 
61 
62 
64 
66 
67 
68 
69 
70 
71 
72 
73 
73 
74 
74 
74 
74 
74 
74 
74 
74 
74 
73 
73 
72 
71 
70 
69 
68 
67 
66 
64 
62 
61 
158 
155 
151 
146 
141 
134 
127 
119 
110 
99 
86 
69 
45 
0 
0 
0 
0 
0 
0 
0 
0 
0 
0 
0 
0 
0 
0 
0 
0 
0 
0 
0 
0 
0 
0 
0 
0 
0 
0 
0 
0 
0 
0 
0 
0 
0 
0 
0 
0 
0 
0 
0 
0 
0 
0 
0 
15 
24 
31 
36 
40 
44 
47 
50 
53 
56 
58 
60 
62 
63 
65 
66 
67 
69 
70 
70 
71 
72 
72 
73 
73 
73 
74 
74 
74 
73 
73 
73 
72 
72 
71 
70 
70 
69 
67 
66 
65 
175 
173 
171 
168 
165 
161 
157 
151 
146 
139 
132 
123 
114 
102 
89 
72 
48 
0 
0 
0 
0 
0 
0 
0 
0 
0 
0 
0 
0 
0 
0 
0 
0 
0 
0 
0 
0 
0 
0 
0 
0 
0 
0 
0 
0 
0 
0 
0 
0 
0 
0 
0 
0 
0 
0 
0 
0 
0 
0 
10 
22 
29 
34 
39 
43 
46 
49 
52 
54 
57 
59 
61 
62 
64 
65 
67 
68 
69 
70 
70 
71 
72 
72 
72 
73 
73 
73 
73 
73 
72 
72 
72 
71 
70 
70 
69 
68 
187 
186 
185 
184 
182 
180 
177 
174 
170 
166 
161 
156 
150 
143 
135 
126 
116 
104 
90 
73 
47 
0 
0 
0 
0 
0 
0 
0 
0 
0 
0 
0 
0 
0 
0 
0 
0 
0 
0 
0 
0 
0 
0 
0 
0 
0 
0 
0 
0 
0 
0 
0 
0 
0 
0 
0 
0 
0 
0 
0 
0 
0 
0 
18 
26 
32 
37 
41 
45 
48 
51 
53 
56 
58 
60 
61 
63 
64 
66 
67 
68 
69 
69 
70 
71 
71 
71 
72 
72 
72 
72 
72 
71 
71 
71 
70 
69 
194 
194 
195 
194 
194 
193 
192 
190 
188 
185 
182 
179 
174 
170 
165 
159 
152 
145 
137 
128 
117 
105 
90 
71 
43 
0 
0 
0 
0 
0 
0 
0 
0 
0 
0 
0 
0 
0 
0 
0 
0 
0 
0 
0 
0 
0 
0 
0 
0 
0 
0 
0 
0 
0 
0 
0 
0 
0 
0 
0 
0 
0 
0 
0 
0 
0 
13 
23 
30 
35 
39 
43 
46 
49 
52 
54 
56 
58 
60 
62 
63 
64 
66 
67 
68 
68 
69 
70 
70 
70 
71 
71 
71 
71 
71 
70 
70 
196 
198 
200 
201 
201 
202 
201 
201 
200 
199 
197 
195 
192 
189 
186 
182 
178 
173 
167 
161 
154 
147 
138 
128 
117 
104 
88 
67 
35 
0 
0 
0 
0 
0 
0 
0 
0 
0 
0 
0 
0 
0 
0 
0 
0 
0 
0 
0 
0 
0 
0 
0 
0 
0 
0 
0 
0 
0 
0 
0 
0 
0 
0 
0 
0 
0 
0 
0 
0 
4 
19 
27 
33 
37 
41 
44 
48 
50 
53 
55 
57 
59 
60 
62 
63 
64 
65 
66 
67 
68 
68 
69 
69 
70 
70 
70 
70 
195 
198 
201 
203 
205 
206 
207 
208 
208 
208 
207 
207 
205 
204 
202 
199 
196 
193 
189 
185 
180 
175 
169 
162 
155 
147 
138 
127 
115 
101 
84 
61 
16 
0 
0 
0 
0 
0 
0 
0 
0 
0 
0 
0 
0 
0 
0 
0 
0 
0 
0 
0 
0 
0 
0 
0 
0 
0 
0 
0 
0 
0 
0 
0 
0 
0 
0 
0 
0 
0 
0 
0 
0 
14 
23 
30 
35 
39 
42 
46 
48 
51 
53 
55 
57 
59 
60 
62 
63 
64 
65 
66 
67 
67 
68 
68 
68 
190 
194 
198 
202 
205 
207 
209 
211 
212 
213 
214 
214 
214 
213 
212 
211 
210 
208 
205 
202 
199 
196 
191 
187 
182 
176 
170 
163 
155 
146 
136 
125 
112 
97 
78 
51 
0 
0 
0 
0 
0 
0 
0 
0 
0 
0 
0 
0 
0 
0 
0 
0 
0 
0 
0 
0 
0 
0 
0 
0 
0 
0 
0 
0 
0 
0 
0 
0 
0 
0 
0 
0 
0 
0 
0 
0 
2 
19 
26 
32 
36 
40 
43 
46 
49 
51 
54 
55 
57 
59 
60 
61 
63 
64 
64 
65 
66 
66 
186 
192 
196 
200 
204 
207 
210 
213 
215 
216 
218 
219 
219 
219 
219 
219 
218 
217 
215 
213 
211 
208 
205 
201 
197 
193 
188 
182 
176 
170 
162 
154 
144 
134 
122 
108 
91 
69 
35 
0 
0 
0 
0 
0 
0 
0 
0 
0 
0 
0 
0 
0 
0 
0 
0 
0 
0 
0 
0 
0 
0 
0 
0 
0 
0 
0 
0 
0 
0 
0 
0 
0 
0 
0 
0 
0 
0 
0 
0 
12 
22 
28 
33 
37 
41 
44 
47 
49 
52 
54 
55 
57 
58 
60 
61 
62 
63 
64 
180 
187 
192 
197 
202 
206 
209 
213 
215 
218 
220 
221 
223 
224 
224 
224 
224 
224 
223 
222 
220 
218 
216 
213 
210 
207 
203 
198 
194 
188 
182 
176 
168 
160 
152 
142 
130 
117 
102 
83 
57 
0 
0 
0 
0 
0 
0 
0 
0 
0 
0 
0 
0 
0 
0 
0 
0 
0 
0 
0 
0 
0 
0 
0 
0 
0 
0 
0 
0 
0 
0 
0 
0 
0 
0 
0 
0 
0 
0 
0 
0 
0 
16 
24 
30 
34 
38 
42 
45 
47 
49 
52 
53 
55 
57 
58 
59 
164 
172 
179 
186 
192 
197 
202 
207 
211 
214 
217 
220 
222 
224 
226 
227 
228 
229 
229 
229 
228 
227 
226 
225 
223 
221 
218 
215 
212 
208 
203 
199 
193 
188 
181 
174 
166 
158 
148 
137 
125 
111 
94 
72 
37 
0 
0 
0 
0 
0 
0 
0 
0 
0 
0 
0 
0 
0 
0 
0 
0 
0 
0 
0 
0 
0 
0 
0 
0 
0 
0 
0 
0 
0 
0 
0 
0 
0 
0 
0 
0 
0 
0 
0 
0 
5 
19 
26 
31 
35 
39 
42 
45 
47 
49 
51 
53 
54 
151 
161 
169 
177 
184 
191 
197 
202 
207 
211 
215 
219 
222 
224 
227 
229 
230 
231 
232 
233 
233 
233 
232 
232 
230 
229 
227 
225 
222 
219 
216 
212 
208 
203 
198 
192 
186 
179 
172 
164 
154 
144 
132 
119 
103 
83 
56 
0 
0 
0 
0 
0 
0 
0 
0 
0 
0 
0 
0 
0 
0 
0 
0 
0 
0 
0 
0 
0 
0 
0 
0 
0 
0 
0 
0 
0 
0 
0 
0 
0 
0 
0 
0 
0 
0 
0 
0 
0 
10 
20 
26 
31 
35 
39 
42 
44 
47 
49 
134 
146 
156 
166 
174 
182 
189 
195 
201 
206 
211 
215 
219 
223 
226 
228 
230 
232 
234 
235 
236 
236 
237 
237 
236 
235 
234 
233 
231 
229 
226 
223 
220 
216 
212 
207 
202 
197 
191 
184 
177 
169 
160 
150 
138 
126 
111 
93 
69 
29 
0 
0 
0 
0 
0 
0 
0 
0 
0 
0 
0 
0 
0 
0 
0 
0 
0 
0 
0 
0 
0 
0 
0 
0 
0 
0 
0 
0 
0 
0 
0 
0 
0 
0 
0 
0 
0 
0 
0 
0 
0 
12 
21 
27 
31 
35 
38 
41 
111 
126 
139 
151 
161 
170 
179 
186 
193 
199 
205 
210 
215 
219 
223 
226 
229 
232 
234 
236 
237 
238 
239 
240 
240 
240 
239 
239 
237 
236 
234 
232 
230 
227 
223 
220 
216 
211 
206 
201 
195 
188 
181 
173 
164 
155 
144 
131 
117 
100 
79 
48 
0 
0 
0 
0 
0 
0 
0 
0 
0 
0 
0 
0 
0 
0 
0 
0 
0 
0 
0 
0 
0 
0 
0 
0 
0 
0 
0 
0 
0 
0 
0 
0 
0 
0 
0 
0 
0 
0 
0 
0 
0 
0 
13 
21 
27 
31 
35 
99 
117 
132 
144 
156 
166 
175 
183 
190 
197 
203 
209 
214 
218 
222 
226 
229 
232 
235 
237 
239 
240 
241 
242 
243 
243 
243 
242 
242 
240 
239 
237 
235 
233 
230 
227 
223 
219 
214 
210 
204 
198 
192 
185 
177 
168 
159 
148 
136 
123 
107 
87 
60 
0 
0 
0 
0 
0 
0 
0 
0 
0 
0 
0 
0 
0 
0 
0 
0 
0 
0 
0 
0 
0 
0 
0 
0 
0 
0 
0 
0 
0 
0 
0 
0 
0 
0 
0 
0 
0 
0 
0 
0 
0 
0 
0 
12 
20 
55 
84 
105 
122 
136 
149 
160 
169 
178 
186 
193 
200 
206 
212 
217 
221 
225 
229 
232 
235 
238 
240 
242 
243 
244 
245 
245 
246 
245 
245 
244 
243 
242 
240 
238 
235 
232 
229 
226 
222 
217 
213 
207 
201 
195 
188 
180 
172 
163 
152 
141 
128 
112 
94 
69 
27 
0 
0 
0 
0 
0 
0 
0 
0 
0 
0 
0 
0 
0 
0 
0 
0 
0 
0 
0 
0 
0 
0 
0 
0 
0 
0 
0 
0 
0 
0 
0 
0 
0 
0 
0 
0 
0 
0 
0 
0 
0 
0 
0 
10 
64 
91 
110 
126 
140 
152 
163 
173 
181 
189 
196 
203 
209 
214 
219 
224 
228 
231 
235 
237 
240 
242 
244 
245 
246 
247 
248 
248 
248 
247 
247 
245 
244 
242 
240 
238 
235 
232 
228 
224 
220 
215 
210 
204 
198 
191 
183 
175 
166 
156 
144 
132 
117 
99 
76 
42 
0 
0 
0 
0 
0 
0 
0 
0 
0 
0 
0 
0 
0 
0 
0 
0 
0 
0 
0 
0 
0 
0 
0 
0 
0 
0 
0 
0 
0 
0 
0 
0 
0 
0 
0 
0 
0 
0 
0 
0 
0 
0 
0 
27 
71 
96 
114 
130 
144 
155 
166 
175 
184 
192 
199 
205 
211 
216 
221 
226 
230 
233 
237 
239 
242 
244 
246 
247 
248 
249 
250 
250 
250 
249 
248 
247 
246 
244 
242 
240 
237 
234 
230 
226 
222 
217 
212 
206 
200 
193 
186 
178 
169 
159 
147 
135 
120 
103 
82 
51 
0 
0 
0 
0 
0 
0 
0 
0 
0 
0 
0 
0 
0 
0 
0 
0 
0 
0 
0 
0 
0 
0 
0 
0 
0 
0 
0 
0 
0 
0 
0 
0 
0 
0 
0 
0 
0 
0 
0 
0 
0 
0 
0 
39 
76 
100 
118 
133 
146 
158 
168 
178 
186 
194 
201 
207 
213 
218 
223 
228 
232 
235 
238 
241 
244 
246 
248 
249 
250 
251 
251 
252 
251 
251 
250 
249 
248 
246 
244 
241 
239 
235 
232 
228 
224 
219 
214 
208 
202 
195 
188 
180 
171 
161 
150 
138 
123 
107 
86 
58 
0 
0 
0 
0 
0 
0 
0 
0 
0 
0 
0 
0 
0 
0 
0 
0 
0 
0 
0 
0 
0 
0 
0 
0 
0 
0 
0 
0 
0 
0 
0 
0 
0 
0 
0 
0 
0 
0 
0 
0 
0 
0 
0 
46 
80 
103 
121 
135 
148 
160 
170 
179 
188 
195 
202 
209 
215 
220 
225 
229 
233 
237 
240 
243 
245 
247 
249 
250 
251 
252 
253 
253 
253 
252 
251 
250 
249 
247 
245 
243 
240 
237 
233 
229 
225 
220 
215 
210 
204 
197 
189 
181 
173 
163 
152 
140 
126 
110 
90 
63 
0 
0 
0 
0 
0 
0 
0 
0 
0 
0 
0 
0 
0 
0 
0 
0 
0 
0 
0 
0 
0 
0 
0 
0 
0 
0 
0 
0 
0 
0 
0 
0 
0 
0 
0 
0 
0 
0 
0 
0 
0 
0 
0 
51 
83 
105 
122 
137 
150 
161 
172 
181 
189 
197 
204 
210 
216 
221 
226 
230 
234 
238 
241 
244 
246 
248 
250 
251 
252 
253 
254 
254 
254 
253 
252 
251 
250 
248 
246 
244 
241 
238 
234 
231 
226 
222 
216 
211 
205 
198 
191 
183 
174 
164 
153 
141 
128 
112 
92 
66 
9 
0 
0 
0 
0 
0 
0 
0 
0 
0 
0 
0 
0 
0 
0 
0 
0 
0 
0 
0 
0 
0 
0 
0 
0 
0 
0 
0 
0 
0 
0 
0 
0 
0 
0 
0 
0 
0 
0 
0 
0 
0 
0 
54 
85 
106 
124 
138 
151 
162 
173 
182 
190 
198 
204 
211 
217 
222 
227 
231 
235 
238 
242 
244 
247 
249 
251 
252 
253 
254 
254 
255 
254 
254 
253 
252 
251 
249 
247 
244 
242 
239 
235 
231 
227 
222 
217 
212 
205 
199 
192 
184 
175 
165 
154 
142 
129 
113 
93 
68 
19 
0 
0 
0 
0 
0 
0 
0 
0 
0 
0 
0 
0 
0 
0 
0 
0 
0 
0 
0 
0 
0 
0 
0 
0 
0 
0 
0 
0 
0 
0 
0 
0 
0 
0 
0 
0 
0 
0 
0 
0 
0 
0 
55 
86 
107 
124 
139 
152 
163 
173 
182 
190 
198 
205 
211 
217 
222 
227 
231 
235 
239 
242 
245 
247 
249 
251 
252 
253 
254 
255 
255 
255 
254 
253 
252 
251 
249 
247 
245 
242 
239 
235 
232 
227 
223 
218 
212 
206 
199 
192 
184 
175 
166 
155 
143 
129 
113 
94 
69 
22 
0 
0 
0 
0 
0 
0 
0 
0 
0 
0 
0 
0 
0 
0 
0 
0 
0 
0 
0 
0 
0 
0 
0 
0 
0 
0 
0 
0 
0 
0 
0 
0 
0 
0 
0 
0 
0 
0 
0 
0 
0 
0 
55 
86 
107 
125 
139 
152 
163 
173 
182 
191 
198 
205 
211 
217 
222 
227 
231 
235 
239 
242 
245 
247 
249 
251 
252 
254 
254 
255 
255 
255 
254 
254 
252 
251 
249 
247 
245 
242 
239 
236 
232 
227 
223 
218 
212 
206 
199 
192 
184 
175 
166 
155 
143 
129 
113 
94 
69 
21 
0 
0 
0 
0 
0 
0 
0 
0 
0 
0 
0 
0 
0 
0 
0 
0 
0 
0 
0 
0 
0 
0 
0 
0 
0 
0 
0 
0 
0 
0 
0 
0 
0 
0 
0 
0 
0 
0 
0 
0 
0 
0 
54 
85 
107 
124 
139 
151 
163 
173 
182 
190 
198 
205 
211 
217 
222 
227 
231 
235 
239 
242 
245 
247 
249 
251 
252 
253 
254 
255 
255 
255 
254 
253 
252 
251 
249 
247 
245 
242 
239 
235 
231 
227 
222 
217 
212 
206 
199 
192 
184 
175 
165 
154 
142 
129 
113 
93 
67 
17 
0 
0 
0 
0 
0 
0 
0 
0 
0 
0 
0 
0 
0 
0 
0 
0 
0 
0 
0 
0 
0 
0 
0 
0 
0 
0 
0 
0 
0 
0 
0 
0 
0 
0 
0 
0 
0 
0 
0 
0 
0 
0 
51 
83 
105 
123 
138 
150 
162 
172 
181 
189 
197 
204 
210 
216 
221 
226 
230 
234 
238 
241 
244 
246 
248 
250 
252 
253 
254 
254 
254 
254 
254 
253 
252 
250 
248 
246 
244 
241 
238 
235 
231 
226 
222 
217 
211 
205 
198 
191 
183 
174 
164 
153 
141 
127 
111 
91 
65 
0 
0 
0 
0 
0 
0 
0 
0 
0 
0 
0 
0 
0 
0 
0 
0 
0 
0 
0 
0 
0 
0 
0 
0 
0 
0 
0 
0 
0 
0 
0 
0 
0 
0 
0 
0 
0 
0 
0 
0 
0 
0 
0 
46 
80 
103 
121 
136 
149 
160 
171 
180 
188 
196 
203 
209 
215 
220 
225 
230 
233 
237 
240 
243 
245 
248 
249 
251 
252 
253 
253 
253 
253 
253 
252 
251 
249 
248 
245 
243 
240 
237 
234 
230 
225 
221 
216 
210 
204 
197 
190 
181 
173 
163 
152 
139 
125 
109 
89 
61 
0 
0 
0 
0 
0 
0 
0 
0 
0 
0 
0 
0 
0 
0 
0 
0 
0 
0 
0 
0 
0 
0 
0 
0 
0 
0 
0 
0 
0 
0 
0 
0 
0 
0 
0 
0 
0 
0 
0 
0 
0 
0 
0 
39 
76 
100 
118 
134 
147 
158 
169 
178 
187 
194 
201 
208 
214 
219 
224 
228 
232 
236 
239 
242 
244 
246 
248 
250 
251 
251 
252 
252 
252 
251 
251 
250 
248 
246 
244 
242 
239 
236 
232 
228 
224 
219 
214 
208 
202 
195 
188 
180 
171 
161 
150 
137 
123 
106 
85 
56 
0 
0 
0 
0 
0 
0 
0 
0 
0 
0 
0 
0 
0 
0 
0 
0 
0 
0 
0 
0 
0 
0 
0 
0 
0 
0 
0 
0 
0 
0 
0 
0 
0 
0 
0 
0 
0 
0 
0 
0 
0 
0 
0 
28 
71 
96 
115 
131 
144 
156 
167 
176 
185 
192 
199 
206 
212 
217 
222 
227 
231 
234 
237 
240 
243 
245 
247 
248 
249 
250 
250 
251 
250 
250 
249 
248 
247 
245 
243 
240 
237 
234 
231 
227 
222 
218 
212 
207 
200 
193 
186 
178 
168 
158 
147 
134 
120 
102 
80 
48 
0 
0 
0 
0 
0 
0 
0 
0 
0 
0 
0 
0 
0 
0 
0 
0 
0 
0 
0 
0 
0 
0 
0 
0 
0 
0 
0 
0 
0 
0 
0 
0 
0 
0 
0 
0 
0 
0 
0 
0 
0 
0 
0 
0 
64 
91 
111 
127 
141 
153 
164 
173 
182 
190 
197 
204 
210 
215 
220 
224 
229 
232 
235 
238 
241 
243 
245 
246 
247 
248 
249 
249 
249 
248 
247 
246 
245 
243 
241 
238 
235 
232 
229 
225 
220 
215 
210 
204 
198 
191 
183 
175 
166 
155 
144 
131 
116 
98 
74 
37 
0 
0 
0 
0 
0 
0 
0 
0 
0 
0 
0 
0 
0 
0 
0 
0 
0 
0 
0 
0 
0 
0 
0 
0 
0 
0 
0 
0 
0 
0 
0 
0 
0 
0 
0 
0 
0 
0 
0 
0 
0 
0 
0 
0 
55 
85 
106 
123 
137 
149 
160 
170 
179 
187 
194 
201 
207 
213 
218 
222 
226 
230 
233 
236 
239 
241 
242 
244 
245 
246 
246 
247 
246 
246 
245 
244 
242 
241 
239 
236 
233 
230 
226 
222 
218 
213 
208 
202 
195 
188 
180 
172 
162 
152 
140 
127 
111 
92 
67 
18 
0 
0 
0 
0 
0 
0 
0 
0 
0 
0 
0 
0 
0 
0 
0 
0 
0 
0 
0 
0 
0 
0 
0 
0 
0 
0 
0 
0 
0 
0 
0 
0 
0 
0 
0 
0 
0 
0 
0 
0 
0 
0 
0 
0 
43 
77 
100 
118 
132 
145 
156 
167 
176 
184 
191 
198 
204 
210 
215 
219 
223 
227 
230 
233 
236 
238 
240 
241 
243 
243 
244 
244 
244 
243 
243 
241 
240 
238 
236 
233 
230 
227 
224 
219 
215 
210 
205 
199 
192 
185 
177 
168 
159 
148 
136 
122 
105 
85 
57 
0 
0 
0 
0 
0 
0 
0 
0 
0 
0 
0 
0 
0 
0 
0 
0 
0 
0 
0 
0 
0 
0 
0 
0 
0 
0 
0 
0 
0 
0 
0 
0 
0 
0 
0 
0 
0 
0 
0 
0 
0 
0 
0 
0 
0 
21 
68 
93 
112 
127 
140 
152 
162 
172 
180 
187 
194 
201 
206 
211 
216 
220 
224 
227 
230 
233 
235 
237 
238 
240 
240 
241 
241 
241 
240 
240 
238 
237 
235 
233 
230 
227 
224 
220 
216 
212 
207 
201 
195 
188 
181 
173 
164 
154 
143 
130 
116 
98 
76 
43 
0 
0 
0 
0 
0 
0 
0 
0 
0 
0 
0 
0 
0 
0 
0 
0 
0 
0 
0 
0 
0 
0 
0 
0 
0 
0 
0 
0 
0 
0 
0 
0 
0 
0 
0 
0 
0 
0 
0 
0 
0 
0 
0 
0 
0 
0 
55 
84 
104 
121 
135 
147 
157 
167 
176 
183 
190 
197 
202 
208 
212 
217 
221 
224 
227 
230 
232 
234 
235 
236 
237 
238 
238 
238 
237 
236 
235 
234 
232 
230 
227 
224 
221 
217 
213 
208 
203 
197 
191 
184 
177 
168 
159 
149 
137 
124 
109 
90 
66 
17 
0 
0 
0 
0 
0 
0 
0 
0 
0 
0 
0 
0 
0 
0 
0 
0 
0 
0 
0 
0 
0 
0 
0 
0 
0 
0 
0 
0 
0 
0 
0 
0 
0 
0 
0 
0 
0 
0 
0 
0 
0 
0 
0 
0 
0 
0 
36 
73 
96 
113 
128 
141 
152 
162 
171 
179 
186 
192 
198 
203 
208 
213 
217 
220 
223 
226 
228 
230 
232 
233 
234 
234 
234 
234 
234 
233 
232 
230 
228 
226 
223 
220 
217 
213 
209 
204 
199 
193 
186 
179 
172 
163 
154 
143 
131 
117 
101 
80 
51 
0 
0 
0 
0 
0 
0 
0 
0 
0 
0 
0 
0 
0 
0 
0 
0 
0 
0 
0 
0 
0 
0 
0 
0 
0 
0 
0 
0 
0 
0 
0 
0 
0 
0 
0 
0 
0 
0 
0 
0 
0 
0 
0 
0 
0 
0 
0 
0 
59 
86 
105 
121 
134 
146 
156 
165 
173 
181 
187 
193 
199 
204 
208 
212 
216 
219 
222 
224 
226 
227 
229 
230 
230 
230 
230 
230 
229 
227 
226 
224 
222 
219 
216 
212 
208 
204 
199 
194 
188 
181 
174 
166 
157 
148 
137 
124 
109 
91 
68 
28 
0 
0 
0 
0 
0 
0 
0 
0 
0 
0 
0 
0 
0 
0 
0 
0 
0 
0 
0 
0 
0 
0 
0 
0 
0 
0 
0 
0 
0 
0 
0 
0 
0 
0 
0 
0 
0 
0 
0 
0 
0 
0 
0 
0 
0 
0 
0 
0 
38 
73 
95 
112 
126 
138 
149 
159 
167 
175 
182 
188 
194 
199 
203 
207 
211 
214 
217 
219 
221 
223 
224 
225 
226 
226 
226 
225 
224 
223 
221 
219 
217 
214 
211 
208 
203 
199 
194 
189 
182 
176 
168 
160 
151 
141 
129 
115 
100 
80 
51 
0 
0 
0 
0 
0 
0 
0 
0 
0 
0 
0 
0 
0 
0 
0 
0 
0 
0 
0 
0 
0 
0 
0 
0 
0 
0 
0 
0 
0 
0 
0 
0 
0 
0 
0 
0 
0 
0 
0 
0 
0 
0 
0 
0 
0 
0 
0 
0 
0 
0 
56 
83 
102 
117 
130 
142 
152 
161 
168 
176 
182 
188 
193 
198 
202 
206 
209 
212 
214 
216 
218 
219 
220 
221 
221 
221 
220 
219 
218 
216 
214 
212 
209 
206 
202 
198 
193 
188 
183 
176 
169 
162 
153 
144 
133 
120 
106 
88 
65 
22 
0 
0 
0 
0 
0 
0 
0 
0 
0 
0 
0 
0 
0 
0 
0 
0 
0 
0 
0 
0 
0 
0 
0 
0 
0 
0 
0 
0 
0 
0 
0 
0 
0 
0 
0 
0 
0 
0 
0 
0 
0 
0 
0 
0 
0 
0 
0 
0 
0 
0 
28 
67 
90 
107 
121 
133 
144 
153 
161 
169 
176 
182 
187 
192 
196 
200 
203 
206 
209 
211 
212 
214 
215 
215 
215 
215 
215 
214 
212 
211 
209 
206 
203 
200 
196 
192 
187 
182 
176 
170 
162 
154 
145 
135 
124 
110 
94 
74 
43 
0 
0 
0 
0 
0 
0 
0 
0 
0 
0 
0 
0 
0 
0 
0 
0 
0 
0 
0 
0 
0 
0 
0 
0 
0 
0 
0 
0 
0 
0 
0 
0 
0 
0 
0 
0 
0 
0 
0 
0 
0 
0 
0 
0 
0 
0 
0 
0 
0 
0 
0 
0 
44 
74 
94 
110 
123 
135 
145 
153 
161 
168 
174 
180 
185 
190 
193 
197 
200 
203 
205 
206 
208 
209 
209 
210 
209 
209 
208 
206 
205 
203 
200 
197 
194 
190 
185 
181 
175 
169 
162 
155 
146 
137 
126 
113 
98 
80 
55 
0 
0 
0 
0 
0 
0 
0 
0 
0 
0 
0 
0 
0 
0 
0 
0 
0 
0 
0 
0 
0 
0 
0 
0 
0 
0 
0 
0 
0 
0 
0 
0 
0 
0 
0 
0 
0 
0 
0 
0 
0 
0 
0 
0 
0 
0 
0 
0 
0 
0 
0 
0 
0 
0 
54 
79 
97 
112 
124 
135 
144 
153 
160 
167 
173 
178 
182 
186 
190 
193 
196 
198 
200 
201 
202 
203 
203 
203 
202 
201 
200 
198 
196 
193 
190 
187 
183 
178 
173 
167 
161 
154 
146 
137 
127 
115 
101 
84 
61 
19 
0 
0 
0 
0 
0 
0 
0 
0 
0 
0 
0 
0 
0 
0 
0 
0 
0 
0 
0 
0 
0 
0 
0 
0 
0 
0 
0 
0 
0 
0 
0 
0 
0 
0 
0 
0 
0 
0 
0 
0 
0 
0 
0 
0 
0 
0 
0 
0 
0 
0 
0 
0 
0 
0 
8 
59 
82 
99 
113 
124 
134 
143 
151 
158 
164 
170 
174 
179 
182 
186 
188 
191 
193 
194 
195 
196 
196 
196 
195 
194 
193 
191 
189 
186 
183 
179 
175 
170 
165 
159 
152 
144 
136 
126 
115 
102 
86 
65 
32 
0 
0 
0 
0 
0 
0 
0 
0 
0 
0 
0 
0 
0 
0 
0 
0 
0 
0 
0 
0 
0 
0 
0 
0 
0 
0 
0 
0 
0 
0 
0 
0 
0 
0 
0 
0 
0 
0 
0 
0 
0 
0 
0 
0 
0 
0 
0 
0 
0 
0 
0 
0 
0 
0 
0 
0 
22 
61 
82 
99 
112 
123 
132 
141 
148 
155 
161 
166 
170 
174 
177 
180 
183 
185 
186 
187 
188 
188 
188 
187 
186 
185 
183 
181 
178 
174 
171 
166 
161 
155 
149 
142 
134 
125 
114 
101 
86 
67 
37 
0 
0 
0 
0 
0 
0 
0 
0 
0 
0 
0 
0 
0 
0 
0 
0 
0 
0 
0 
0 
0 
0 
0 
0 
0 
0 
0 
0 
0 
0 
0 
0 
0 
0 
0 
0 
0 
0 
0 
0 
0 
0 
0 
0 
0 
0 
0 
0 
0 
0 
0 
0 
0 
0 
0 
0 
0 
0 
24 
60 
81 
97 
109 
120 
129 
137 
144 
150 
156 
161 
165 
168 
171 
174 
176 
178 
179 
179 
180 
179 
179 
178 
176 
174 
172 
169 
165 
161 
156 
151 
145 
138 
131 
122 
111 
99 
85 
66 
37 
0 
0 
0 
0 
0 
0 
0 
0 
0 
0 
0 
0 
0 
0 
0 
0 
0 
0 
0 
0 
0 
0 
0 
0 
0 
0 
0 
0 
0 
0 
0 
0 
0 
0 
0 
0 
0 
0 
0 
0 
0 
0 
0 
0 
0 
0 
0 
0 
0 
0 
0 
0 
0 
0 
0 
0 
0 
0 
0 
0 
20 
57 
78 
93 
105 
116 
125 
132 
139 
145 
150 
154 
158 
162 
164 
166 
168 
169 
170 
170 
170 
169 
168 
167 
164 
162 
159 
155 
151 
146 
140 
133 
126 
117 
107 
96 
81 
63 
34 
0 
0 
0 
0 
0 
0 
0 
0 
0 
0 
0 
0 
0 
0 
0 
0 
0 
0 
0 
0 
0 
0 
0 
0 
0 
0 
0 
0 
0 
0 
0 
0 
0 
0 
0 
0 
0 
0 
0 
0 
0 
0 
0 
0 
0 
0 
0 
0 
0 
0 
0 
0 
0 
0 
0 
0 
0 
0 
0 
0 
0 
0 
0 
51 
72 
88 
100 
110 
119 
126 
133 
138 
143 
147 
150 
153 
156 
157 
159 
159 
160 
160 
159 
158 
156 
154 
151 
147 
143 
139 
133 
127 
120 
112 
102 
90 
76 
57 
24 
0 
0 
0 
0 
0 
0 
0 
0 
0 
0 
0 
0 
0 
0 
0 
0 
0 
0 
0 
0 
0 
0 
0 
0 
0 
0 
0 
0 
0 
0 
0 
0 
0 
0 
0 
0 
0 
0 
0 
0 
0 
0 
0 
0 
0 
0 
0 
0 
0 
0 
0 
0 
0 
0 
0 
0 
0 
0 
0 
0 
0 
0 
0 
0 
0 
40 
64 
80 
92 
102 
111 
118 
124 
130 
134 
138 
141 
144 
146 
147 
148 
148 
148 
147 
146 
144 
141 
138 
135 
130 
125 
119 
112 
104 
94 
82 
68 
47 
0 
0 
0 
0 
0 
0 
0 
0 
0 
0 
0 
0 
0 
0 
0 
0 
0 
0 
0 
0 
0 
0 
0 
0 
0 
0 
0 
0 
0 
0 
0 
0 
0 
0 
0 
0 
0 
0 
0 
0 
0 
0 
0 
0 
0 
0 
0 
0 
0 
0 
0 
0 
0 
0 
0 
0 
0 
0 
0 
0 
0 
0 
0 
0 
0 
0 
0 
0 
18 
51 
69 
82 
92 
101 
108 
114 
119 
124 
127 
130 
132 
134 
134 
135 
134 
134 
132 
130 
127 
124 
120 
115 
109 
102 
94 
84 
72 
56 
29 
0 
0 
0 
0 
0 
0 
0 
0 
0 
0 
0 
0 
0 
0 
0 
0 
0 
0 
0 
0 
0 
0 
0 
0 
0 
0 
0 
0 
0 
0 
0 
0 
0 
0 
0 
0 
0 
0 
0 
0 
0 
0 
0 
0 
0 
0 
0 
0 
0 
0 
0 
0 
0 
0 
0 
0 
0 
0 
0 
0 
0 
0 
0 
0 
0 
0 
0 
0 
0 
0 
0 
29 
53 
68 
79 
88 
96 
102 
107 
111 
114 
116 
118 
119 
119 
119 
118 
117 
114 
111 
107 
102 
97 
90 
81 
70 
57 
36 
0 
0 
0 
0 
0 
0 
0 
0 
0 
0 
0 
0 
0 
0 
0 
0 
0 
0 
0 
0 
0 
0 
0 
0 
0 
0 
0 
0 
0 
0 
0 
0 
0 
0 
0 
0 
0 
0 
0 
0 
0 
0 
0 
0 
0 
0 
0 
0 
0 
0 
0 
0 
0 
0 
0 
0 
0 
0 
0 
0 
0 
0 
0 
0 
0 
0 
0 
0 
0 
0 
0 
0 
0 
0 
0 
24 
47 
61 
71 
79 
85 
90 
94 
97 
99 
100 
101 
101 
99 
98 
95 
91 
86 
80 
73 
63 
50 
31 
0 
0 
0 
0 
0 
0 
0 
0 
0 
0 
0 
0 
0 
0 
0 
0 
0 
0 
0 
0 
0 
0 
0 
0 
0 
0 
0 
0 
0 
0 
0 
0 
0 
0 
0 
0 
0 
0 
0 
0 
0 
0 
0 
0 
0 
0 
0 
0 
0 
0 
0 
0 
0 
0 
0 
0 
0 
0 
0 
0 
0 
0 
0 
0 
0 
0 
0 
0 
0 
0 
0 
0 
0 
0 
0 
0 
0 
0 
0 
0 
29 
45 
55 
63 
68 
72 
75 
77 
77 
77 
75 
73 
69 
64 
57 
48 
33 
0 
0 
0 
0 
0 
0 
0 
0 
0 
0 
0 
0 
0 
0 
0 
0 
0 
0 
0 
0 
0 
0 
0 
0 
0 
0 
0 
0 
0 
0 
0 
0 
0 
0 
0 
0 
0 
0 
0 
0 
0 
0 
0 
0 
0 
0 
0 
0 
0 
0 
0 
0 
0 
0 
0 
0 
0 
0 
0 
0 
0 
0 
0 
0 
0 
0 
0 
0 
0 
0 
0 
0 
0 
0 
0 
0 
0 
0 
0 
0 
0 
0 
0 
0 
0 
0 
0 
17 
29 
36 
39 
40 
39 
36 
31 
21 
0 
0 
0 
0 
0 
0 
0 
0 
0 
0 
0 
0 
0 
0 
0 
0 
0 
0 
0 
0 
0 
0 
0 
0 
0 
0 
0 
0 
0 
0 
0 
0 
0 
0 
0 
0 
0 
0 
0 
0 
0 
0 
0 
0 
0 
0 
0 
0 
0 
0 
0 
0 
0 
0 
0 
0 
0 
0 
0 
0 
0 
0 
0 
0 
0 
0 
0 
0 
0 
0 
0 
0 
0 
0 
0 
0 
0 
0 
0 
0 
0 
0 
0 
0 
0 
0 
0 
0 
0 
0 
0 
0 
0 
0 
0 
0 
0 
0 
0 
0 
0 
0 
0 
0 
0 
0 
0 
0 
0 
0 
0 
0 
0 
0 
0 
0 
0 
0 
0 
0 
0 
0 
0 
0 
0 
0 
0 
0 
0 
0 
0 
0 
0 
0 
0 
0 
0 
0 
0 
0 
0 
0 
0 
0 
0 
0 
0 
0 
0 
0 
0 
0 
0 
0 
0 
0 
0 
0 
0 
0 
0 
0 
0 
0 
0 
0 
0 
0 
0 
0 
0 
0 
0 
0 
0 
0 
0 
0 
0 
0 
0 
0 
0 
0 
0 
0 
0 
0 
0 
0 
0 
0 
0 
0 
0 
0 
0 
0 
0 
0 
0 
0 
0 
0 
0 
0 
0 
0 
0 
0 
0 
0 
0 
0 
0 
0 
0 
0 
0 
0 
0 
0 
0 
0 
0 
0 
0 
0 
0 
0 
0 
0 
0 
0 
0 
0 
0 
0 
0 
0 
0 
0 
0 
0 
0 
0 
0 
0 
0 
0 
0 
0 
0 
0 
0 
0 
0 
0 
0 
0 
0 
0 
0 
0 
0 
0 
0 
0 
0 
0 
0 
0 
0 
0 
0 
0 
0 
0 
0 
0 
0 
0 
0 
0 
0 
0 
0 
0 
0 
0 
0 
0 
0 
0 
0 
0 
0 
0 
0 
0 
0 
0 
0 
0 
0 
0 
0 
0 
0 
0 
0 
0 
0 
0 
0 
0 
0 
0 
0 
0 
0 
0 
0 
0 
0 
0 
0 
0 
0 
0 
0 
0 
0 
0 
0 
0 
0 
0 
0 
0 
0 
0 
0 
0 
0 
0 
0 
0 
0 
0 
0 
0 
0 
0 
0 
0 
0 
83 
125 
119 
50 
0 
0 
0 
0 
0 
0 
0 
0 
0 
41 
117 
125 
85 
0 
0 
0 
0 
0 
0 
0 
0 
0 
0 
105 
127 
105 
0 
0 
0 
0 
0 
0 
0 
0 
0 
0 
85 
125 
117 
41 
0 
0 
0 
0 
0 
0 
0 
0 
0 
50 
119 
125 
83 
0 
0 
0 
0 
0 
0 
0 
0 
0 
0 
0 
0 
0 
0 
0 
0 
0 
0 
0 
0 
0 
0 
0 
0 
0 
0 
0 
0 
0 
0 
0 
0 
0 
0 
0 
0 
0 
0 
0 
0 
0 
0 
61 
149 
176 
171 
133 
0 
0 
0 
0 
0 
0 
0 
0 
0 
131 
171 
176 
150 
61 
0 
0 
0 
0 
0 
0 
0 
0 
104 
162 
177 
162 
104 
0 
0 
0 
0 
0 
0 
0 
0 
61 
150 
176 
171 
131 
0 
0 
0 
0 
0 
0 
0 
0 
0 
133 
171 
176 
149 
61 
0 
0 
0 
0 
0 
0 
0 
0 
0 
0 
0 
0 
0 
0 
0 
0 
0 
0 
0 
0 
0 
0 
0 
0 
0 
0 
0 
0 
0 
0 
0 
0 
0 
0 
0 
0 
0 
0 
0 
8 
0 
96 
166 
190 
185 
150 
22 
0 
0 
0 
0 
0 
0 
0 
15 
150 
185 
190 
166 
93 
0 
0 
0 
0 
0 
0 
0 
0 
127 
177 
19 
177 
127 
0 
0 
0 
0 
0 
0 
0 
0 
93 
166 
190 
185 
150 
15 
0 
0 
0 
0 
0 
0 
0 
22 
150 
185 
190 
166 
96 
0 
8 
0 
0 
0 
0 
0 
0 
0 
0 
0 
0 
0 
0 
0 
0 
0 
0 
0 
0 
0 
0 
0 
0 
0 
0 
0 
0 
0 
0 
0 
0 
0 
0 
0 
0 
0 
28 
119 
141 
134 
93 
151 
176 
171 
131 
0 
0 
0 
0 
0 
0 
0 
99 
136 
140 
114 
176 
149 
59 
0 
0 
0 
0 
0 
0 
0 
0 
68 
127 
142 
127 
68 
0 
0 
0 
0 
0 
0 
0 
0 
59 
149 
176 
114 
140 
136 
99 
0 
0 
0 
0 
0 
0 
0 
131 
171 
176 
151 
93 
134 
141 
119 
28 
0 
0 
0 
0 
0 
0 
0 
0 
0 
0 
0 
0 
0 
0 
0 
0 
0 
0 
0 
0 
0 
0 
0 
0 
0 
0 
0 
0 
0 
0 
0 
0 
0 
114 
162 
179 
173 
143 
59 
126 
118 
41 
0 
0 
0 
0 
0 
0 
76 
148 
175 
178 
158 
102 
83 
0 
0 
0 
0 
0 
0 
0 
0 
0 
129 
168 
179 
168 
129 
0 
0 
0 
0 
0 
0 
0 
0 
0 
83 
102 
158 
178 
175 
148 
76 
0 
0 
0 
0 
0 
0 
41 
118 
126 
59 
143 
173 
179 
162 
114 
0 
0 
0 
0 
0 
0 
0 
0 
0 
0 
0 
0 
0 
0 
0 
0 
0 
0 
0 
0 
0 
0 
0 
0 
0 
0 
0 
0 
0 
0 
0 
0 
0 
133 
176 
191 
185 
157 
87 
0 
0 
0 
0 
0 
0 
0 
0 
0 
102 
163 
187 
190 
171 
121 
0 
0 
0 
0 
0 
0 
0 
0 
0 
42 
145 
181 
191 
181 
145 
42 
0 
0 
0 
0 
0 
0 
0 
0 
0 
121 
171 
190 
187 
163 
102 
0 
0 
0 
0 
0 
0 
0 
0 
0 
87 
157 
185 
191 
176 
133 
0 
0 
0 
0 
0 
0 
0 
0 
0 
0 
0 
0 
0 
0 
0 
0 
0 
0 
0 
0 
0 
0 
0 
0 
0 
0 
0 
0 
0 
78 
85 
54 
0 
122 
167 
182 
176 
146 
63 
0 
0 
0 
0 
0 
0 
0 
0 
73 
85 
61 
179 
181 
161 
106 
0 
0 
0 
0 
0 
0 
0 
0 
0 
0 
134 
68 
86 
68 
134 
0 
0 
0 
0 
0 
0 
0 
0 
0 
0 
106 
161 
181 
179 
61 
85 
73 
0 
0 
0 
0 
0 
0 
0 
0 
63 
146 
176 
182 
167 
122 
0 
54 
85 
78 
0 
0 
0 
0 
0 
0 
0 
0 
0 
0 
0 
0 
0 
0 
0 
0 
0 
0 
0 
0 
0 
0 
0 
57 
122 
146 
149 
134 
90 
67 
131 
150 
142 
101 
0 
0 
0 
0 
0 
0 
0 
19 
115 
143 
150 
137 
98 
148 
122 
18 
0 
0 
0 
0 
0 
0 
0 
0 
0 
0 
107 
140 
150 
140 
107 
0 
0 
0 
0 
0 
0 
0 
0 
0 
0 
18 
122 
148 
98 
137 
150 
143 
115 
19 
0 
0 
0 
0 
0 
0 
0 
101 
142 
150 
131 
67 
90 
134 
149 
146 
122 
57 
0 
0 
0 
0 
0 
0 
0 
0 
0 
0 
0 
0 
0 
0 
0 
0 
0 
0 
0 
0 
0 
115 
157 
176 
179 
165 
132 
47 
0 
63 
39 
0 
0 
0 
0 
0 
0 
0 
0 
101 
152 
174 
179 
169 
139 
67 
0 
0 
0 
0 
0 
0 
0 
0 
0 
0 
0 
85 
145 
171 
179 
171 
145 
85 
0 
0 
0 
0 
0 
0 
0 
0 
0 
0 
0 
67 
139 
169 
179 
174 
152 
101 
0 
0 
0 
0 
0 
0 
0 
0 
39 
63 
0 
47 
132 
165 
179 
176 
157 
115 
0 
0 
0 
0 
0 
0 
0 
0 
0 
0 
0 
0 
0 
0 
0 
0 
0 
0 
0 
0 
32 
133 
171 
188 
190 
177 
146 
77 
0 
0 
0 
0 
0 
0 
0 
0 
0 
0 
0 
121 
165 
186 
190 
180 
153 
93 
0 
0 
0 
0 
0 
0 
0 
0 
0 
0 
0 
107 
159 
183 
191 
183 
159 
107 
0 
0 
0 
0 
0 
0 
0 
0 
0 
0 
0 
93 
153 
180 
190 
186 
165 
121 
0 
0 
0 
0 
0 
0 
0 
0 
0 
0 
0 
77 
146 
177 
190 
188 
171 
133 
32 
0 
0 
0 
0 
0 
0 
0 
0 
0 
0 
0 
0 
0 
0 
0 
0 
0 
0 
0 
18 
130 
168 
185 
186 
173 
141 
66 
0 
0 
0 
0 
0 
0 
0 
0 
0 
0 
0 
117 
162 
183 
187 
177 
148 
85 
0 
0 
0 
0 
0 
0 
0 
0 
0 
0 
0 
101 
155 
180 
187 
180 
155 
101 
0 
0 
0 
0 
0 
0 
0 
0 
0 
0 
0 
85 
148 
177 
187 
183 
162 
117 
0 
0 
0 
0 
0 
0 
0 
0 
0 
0 
0 
66 
141 
173 
186 
185 
168 
130 
18 
0 
0 
0 
0 
0 
0 
0 
0 
0 
0 
0 
0 
0 
0 
41 
49 
0 
0 
0 
0 
103 
147 
166 
167 
152 
114 
0 
0 
0 
0 
0 
0 
0 
0 
0 
0 
35 
50 
8 
140 
164 
168 
157 
123 
19 
0 
0 
0 
0 
0 
0 
0 
0 
0 
0 
0 
61 
132 
26 
50 
26 
132 
61 
0 
0 
0 
0 
0 
0 
0 
0 
0 
0 
0 
19 
123 
157 
168 
164 
140 
8 
50 
35 
0 
0 
0 
0 
0 
0 
0 
0 
0 
0 
114 
152 
167 
166 
147 
103 
0 
0 
0 
0 
49 
41 
0 
0 
0 
0 
0 
0 
0 
63 
107 
125 
128 
115 
82 
0 
0 
0 
100 
125 
126 
105 
24 
0 
0 
0 
0 
0 
0 
0 
0 
42 
101 
123 
128 
118 
88 
122 
128 
111 
55 
0 
0 
0 
0 
0 
0 
0 
0 
0 
0 
0 
0 
0 
95 
121 
128 
121 
95 
0 
0 
0 
0 
0 
0 
0 
0 
0 
0 
0 
0 
0 
55 
111 
128 
122 
88 
118 
128 
123 
101 
42 
0 
0 
0 
0 
0 
0 
0 
0 
24 
105 
126 
125 
100 
0 
0 
0 
82 
115 
128 
125 
107 
63 
0 
0 
0 
0 
59 
120 
148 
161 
163 
153 
129 
81 
0 
0 
0 
0 
0 
0 
0 
0 
0 
0 
0 
0 
0 
0 
10 
110 
144 
160 
163 
155 
134 
90 
0 
0 
0 
0 
0 
0 
0 
0 
0 
0 
0 
0 
0 
0 
0 
100 
139 
158 
164 
158 
139 
100 
0 
0 
0 
0 
0 
0 
0 
0 
0 
0 
0 
0 
0 
0 
0 
90 
134 
155 
163 
160 
144 
110 
10 
0 
0 
0 
0 
0 
0 
0 
0 
0 
0 
0 
0 
0 
0 
81 
129 
153 
163 
161 
148 
120 
59 
0 
0 
0 
103 
146 
170 
181 
182 
173 
152 
113 
0 
0 
0 
0 
0 
0 
0 
0 
0 
0 
0 
0 
0 
0 
84 
138 
166 
179 
182 
175 
156 
121 
30 
0 
0 
0 
0 
0 
0 
0 
0 
0 
0 
0 
0 
0 
61 
129 
161 
178 
183 
178 
161 
129 
61 
0 
0 
0 
0 
0 
0 
0 
0 
0 
0 
0 
0 
0 
30 
121 
156 
175 
182 
179 
166 
138 
84 
0 
0 
0 
0 
0 
0 
0 
0 
0 
0 
0 
0 
0 
0 
113 
152 
173 
182 
181 
170 
146 
103 
0 
0 
0 
119 
157 
179 
189 
190 
181 
161 
124 
37 
0 
0 
0 
0 
0 
0 
0 
0 
0 
0 
0 
0 
0 
101 
149 
175 
188 
191 
183 
165 
132 
61 
0 
0 
0 
0 
0 
0 
0 
0 
0 
0 
0 
0 
0 
82 
140 
170 
186 
191 
186 
170 
140 
82 
0 
0 
0 
0 
0 
0 
0 
0 
0 
0 
0 
0 
0 
61 
132 
165 
183 
191 
188 
175 
149 
101 
0 
0 
0 
0 
0 
0 
0 
0 
0 
0 
0 
0 
0 
37 
124 
161 
181 
190 
189 
179 
157 
119 
0 
0 
0 
118 
157 
178 
188 
188 
179 
158 
120 
15 
0 
0 
0 
0 
0 
0 
0 
0 
0 
0 
0 
0 
0 
100 
148 
173 
186 
189 
182 
163 
129 
54 
0 
0 
0 
0 
0 
0 
0 
0 
0 
0 
0 
0 
0 
79 
138 
168 
184 
189 
184 
168 
138 
79 
0 
0 
0 
0 
0 
0 
0 
0 
0 
0 
0 
0 
0 
54 
129 
163 
182 
189 
186 
173 
148 
100 
0 
0 
0 
0 
0 
0 
0 
0 
0 
0 
0 
0 
0 
15 
120 
158 
179 
188 
188 
178 
157 
118 
0 
0 
0 
101 
144 
166 
177 
176 
166 
143 
99 
0 
0 
0 
0 
0 
0 
0 
0 
0 
0 
0 
0 
0 
0 
78 
134 
161 
175 
177 
169 
149 
110 
0 
0 
0 
0 
0 
0 
0 
0 
0 
0 
0 
0 
0 
0 
45 
122 
156 
172 
178 
172 
156 
122 
45 
0 
0 
0 
0 
0 
0 
0 
0 
0 
0 
0 
0 
0 
0 
110 
149 
169 
177 
175 
161 
134 
78 
0 
0 
0 
0 
0 
0 
0 
0 
0 
0 
0 
0 
0 
0 
99 
143 
166 
176 
177 
166 
144 
101 
0 
0 
0 
55 
115 
142 
153 
153 
140 
111 
39 
0 
0 
0 
0 
0 
0 
0 
0 
0 
0 
0 
0 
0 
0 
0 
102 
136 
151 
154 
144 
120 
65 
0 
0 
0 
0 
0 
0 
0 
0 
0 
0 
0 
0 
0 
0 
0 
85 
128 
148 
154 
148 
128 
85 
0 
0 
0 
0 
0 
0 
0 
0 
0 
0 
0 
0 
0 
0 
0 
65 
120 
144 
154 
151 
136 
102 
0 
0 
0 
0 
0 
0 
0 
0 
0 
0 
0 
0 
0 
0 
0 
39 
111 
140 
153 
153 
142 
115 
55 
0 
0 
0 
0 
49 
95 
110 
109 
90 
26 
0 
0 
0 
0 
0 
0 
0 
0 
0 
0 
0 
0 
0 
0 
0 
0 
0 
85 
108 
111 
97 
54 
0 
0 
0 
0 
0 
0 
0 
0 
0 
0 
0 
0 
0 
0 
0 
0 
0 
72 
103 
112 
103 
72 
0 
0 
0 
0 
0 
0 
0 
0 
0 
0 
0 
0 
0 
0 
0 
0 
0 
54 
97 
111 
108 
85 
0 
0 
0 
0 
0 
0 
0 
0 
0 
0 
0 
0 
0 
0 
0 
0 
0 
26 
90 
109 
110 
95 
49 
0 
0 
0 
0 
0 
0 
0 
0 
0 
0 
0 
0 
0 
0 
0 
0 
0 
0 
0 
0 
0 
62 
92 
104 
104 
94 
67 
0 
0 
0 
0 
0 
0 
0 
0 
0 
0 
0 
0 
0 
0 
0 
0 
0 
0 
0 
0 
0 
0 
30 
81 
100 
105 
100 
81 
30 
0 
0 
0 
0 
0 
0 
0 
0 
0 
0 
0 
0 
0 
0 
0 
0 
0 
0 
0 
0 
0 
0 
67 
94 
104 
104 
92 
62 
0 
0 
0 
0 
0 
0 
0 
0 
0 
0 
0 
0 
0 
0 
0 
0 
0 
0 
0 
0 
0 
0 
0 
0 
0 
0 
0 
0 
0 
0 
0 
0 
0 
0 
0 
0 
82 
116 
134 
142 
142 
135 
117 
85 
0 
0 
0 
0 
0 
0 
0 
0 
0 
0 
0 
0 
0 
0 
0 
0 
0 
0 
0 
0 
50 
102 
127 
139 
143 
139 
127 
102 
50 
0 
0 
0 
0 
0 
0 
0 
0 
0 
0 
0 
0 
0 
0 
0 
0 
0 
0 
0 
0 
85 
117 
135 
142 
142 
134 
116 
82 
0 
0 
0 
0 
0 
0 
0 
0 
0 
0 
0 
0 
0 
0 
0 
0 
0 
0 
0 
0 
0 
0 
0 
0 
0 
0 
0 
0 
0 
0 
0 
0 
0 
0 
74 
119 
144 
159 
166 
166 
159 
145 
119 
73 
0 
0 
0 
0 
0 
0 
0 
0 
0 
0 
0 
0 
0 
0 
0 
0 
0 
0 
0 
99 
133 
153 
163 
167 
163 
153 
133 
99 
0 
0 
0 
0 
0 
0 
0 
0 
0 
0 
0 
0 
0 
0 
0 
0 
0 
0 
0 
73 
119 
145 
159 
166 
166 
159 
144 
119 
74 
0 
0 
0 
0 
0 
0 
0 
0 
0 
0 
0 
0 
0 
0 
0 
0 
0 
0 
0 
0 
0 
0 
0 
0 
0 
0 
0 
0 
0 
0 
0 
0 
3 
104 
140 
162 
175 
181 
180 
174 
161 
138 
101 
0 
0 
0 
0 
0 
0 
0 
0 
0 
0 
0 
0 
0 
0 
0 
0 
0 
0 
69 
122 
151 
168 
178 
181 
178 
168 
151 
122 
69 
0 
0 
0 
0 
0 
0 
0 
0 
0 
0 
0 
0 
0 
0 
0 
0 
0 
0 
101 
138 
161 
174 
180 
181 
175 
162 
140 
104 
3 
0 
0 
0 
0 
0 
0 
0 
0 
0 
0 
0 
0 
0 
0 
0 
0 
0 
0 
0 
0 
0 
0 
0 
0 
0 
0 
0 
0 
0 
0 
0 
58 
119 
151 
171 
183 
189 
188 
182 
169 
148 
114 
41 
0 
0 
0 
0 
0 
0 
0 
0 
0 
0 
0 
0 
0 
0 
0 
0 
0 
88 
134 
160 
177 
186 
189 
186 
177 
160 
134 
88 
0 
0 
0 
0 
0 
0 
0 
0 
0 
0 
0 
0 
0 
0 
0 
0 
0 
41 
114 
148 
169 
182 
188 
189 
183 
171 
151 
119 
58 
0 
0 
0 
0 
0 
0 
0 
0 
0 
0 
0 
0 
0 
0 
0 
0 
0 
0 
0 
0 
0 
0 
0 
0 
0 
0 
0 
0 
0 
0 
0 
67 
123 
154 
174 
185 
191 
190 
184 
171 
150 
116 
47 
0 
0 
0 
0 
0 
0 
0 
0 
0 
0 
0 
0 
0 
0 
0 
0 
0 
93 
137 
163 
179 
188 
191 
188 
179 
163 
137 
93 
0 
0 
0 
0 
0 
0 
0 
0 
0 
0 
0 
0 
0 
0 
0 
0 
0 
47 
116 
150 
171 
184 
190 
191 
185 
174 
154 
123 
67 
0 
0 
0 
0 
0 
0 
0 
0 
0 
0 
0 
0 
0 
0 
0 
0 
0 
0 
0 
0 
0 
0 
0 
0 
0 
0 
0 
0 
0 
0 
0 
59 
119 
150 
170 
182 
187 
186 
180 
166 
144 
109 
22 
0 
0 
0 
0 
0 
0 
0 
0 
0 
0 
0 
0 
0 
0 
0 
0 
0 
85 
132 
159 
175 
185 
188 
185 
175 
159 
132 
85 
0 
0 
0 
0 
0 
0 
0 
0 
0 
0 
0 
0 
0 
0 
0 
0 
0 
22 
109 
144 
166 
180 
186 
187 
182 
170 
150 
119 
59 
0 
0 
0 
0 
0 
0 
0 
0 
0 
0 
0 
0 
0 
0 
0 
0 
0 
0 
0 
0 
0 
0 
0 
0 
0 
0 
0 
0 
0 
0 
0 
22 
105 
139 
160 
172 
178 
177 
170 
155 
131 
90 
0 
0 
0 
0 
0 
0 
0 
0 
0 
0 
0 
0 
0 
0 
0 
0 
0 
0 
62 
118 
147 
165 
175 
178 
175 
165 
147 
118 
62 
0 
0 
0 
0 
0 
0 
0 
0 
0 
0 
0 
0 
0 
0 
0 
0 
0 
0 
90 
131 
155 
170 
177 
178 
172 
160 
139 
105 
22 
0 
0 
0 
0 
0 
0 
0 
0 
0 
0 
0 
0 
0 
0 
0 
0 
0 
0 
0 
0 
0 
0 
0 
0 
0 
0 
0 
0 
0 
0 
0 
0 
76 
118 
142 
155 
161 
160 
152 
135 
106 
46 
0 
0 
0 
0 
0 
0 
0 
0 
0 
0 
0 
0 
0 
0 
0 
0 
0 
0 
0 
91 
127 
147 
158 
161 
158 
147 
127 
91 
0 
0 
0 
0 
0 
0 
0 
0 
0 
0 
0 
0 
0 
0 
0 
0 
0 
0 
0 
46 
106 
135 
152 
160 
161 
155 
142 
118 
76 
0 
0 
0 
0 
0 
0 
0 
0 
0 
0 
0 
0 
0 
0 
0 
0 
0 
0 
0 
0 
0 
0 
0 
0 
0 
0 
0 
0 
0 
0 
0 
0 
0 
0 
81 
112 
129 
135 
133 
123 
102 
58 
0 
0 
0 
0 
0 
0 
0 
0 
0 
0 
0 
0 
0 
0 
0 
0 
0 
0 
0 
0 
25 
91 
118 
131 
135 
131 
118 
91 
25 
0 
0 
0 
0 
0 
0 
0 
0 
0 
0 
0 
0 
0 
0 
0 
0 
0 
0 
0 
0 
58 
102 
123 
133 
135 
129 
112 
81 
0 
0 
0 
0 
0 
0 
0 
0 
0 
0 
0 
0 
0 
0 
0 
0 
0 
0 
0 
0 
0 
0 
0 
0 
0 
0 
0 
0 
0 
0 
0 
0 
0 
0 
0 
0 
55 
83 
92 
89 
73 
20 
0 
0 
0 
0 
0 
0 
0 
0 
0 
0 
0 
0 
0 
0 
0 
0 
0 
0 
0 
0 
0 
0 
0 
64 
86 
93 
86 
64 
0 
0 
0 
0 
0 
0 
0 
0 
0 
0 
0 
0 
0 
0 
0 
0 
0 
0 
0 
0 
0 
0 
0 
20 
73 
89 
92 
83 
55 
0 
0 
0 
0 
0 
0 
0 
0 
0 
0 
0 
0 
0 
0 
0 
0 
0 
0 
0 
0 
0 
0 
0 
0 
0 
0 
0 
0 
0 
0 
0 
0 
0 
0 
0 
0 
0 
0 
0 
0 
0 
0 
0 
0 
0 
0 
0 
0 
0 
0 
0 
0 
0 
0 
0 
0 
0 
0 
0 
0 
0 
0 
0 
0 
0 
0 
0 
0 
0 
0 
0 
0 
0 
0 
0 
0 
0 
0 
0 
0 
0 
0 
0 
0 
0 
0 
0 
0 
0 
0 
0 
0 
0 
0 
0 
0 
0 
0 
0 
0 
0 
0 
0 
0 
0 
0 
0 
0 
0 
0 
0 
0 
0 
0 
0 
0 
0 
0 